<?xml version="1.0" encoding="UTF-8" standalone="no"?>
<svg
   version="1.1"
   width="116.19518"
   height="106.09014"
   viewBox="0 0 116.19518 106.09014"
   xml:space="preserve"
   id="svg28"
   xmlns="http://www.w3.org/2000/svg"
   xmlns:svg="http://www.w3.org/2000/svg">
<desc
   id="desc1">Created with Fabric.js 5.2.4</desc>
<defs
   id="defs1" />



<g
   transform="translate(105.31801,94.980641)"
   id="g3">
<rect
   style="opacity:1;fill:#ffffff;fill-opacity:0;fill-rule:nonzero;stroke:none;stroke-width:1;stroke-linecap:butt;stroke-linejoin:miter;stroke-miterlimit:4;stroke-dasharray:none;stroke-dashoffset:0"
   vector-effect="non-scaling-stroke"
   x="-50"
   y="-50"
   rx="0"
   ry="0"
   width="100"
   height="100"
   id="rect3" />
</g>

<g
   transform="translate(126.69801,55.790641)"
   id="g5">
<rect
   style="opacity:1;fill:#ffffff;fill-opacity:0;fill-rule:nonzero;stroke:none;stroke-width:1;stroke-linecap:butt;stroke-linejoin:miter;stroke-miterlimit:4;stroke-dasharray:none;stroke-dashoffset:0"
   vector-effect="non-scaling-stroke"
   x="-50"
   y="-50"
   rx="0"
   ry="0"
   width="100"
   height="100"
   id="rect5" />
</g>

<g
   transform="translate(126.69801,55.790641)"
   id="g7">
<rect
   style="opacity:1;fill:#ffffff;fill-opacity:0;fill-rule:nonzero;stroke:none;stroke-width:1;stroke-linecap:butt;stroke-linejoin:miter;stroke-miterlimit:4;stroke-dasharray:none;stroke-dashoffset:0"
   vector-effect="non-scaling-stroke"
   x="-50"
   y="-50"
   rx="0"
   ry="0"
   width="100"
   height="100"
   id="rect7" />
</g>




<g
   transform="translate(94.628013,114.58064)"
   id="g12">
<rect
   style="opacity:1;fill:#ffffff;fill-opacity:0;fill-rule:nonzero;stroke:none;stroke-width:1;stroke-linecap:butt;stroke-linejoin:miter;stroke-miterlimit:4;stroke-dasharray:none;stroke-dashoffset:0"
   vector-effect="non-scaling-stroke"
   x="-50"
   y="-50"
   rx="0"
   ry="0"
   width="100"
   height="100"
   id="rect12" />
</g>

<g
   transform="translate(94.628013,114.58064)"
   id="g14">
<rect
   style="opacity:1;fill:#ffffff;fill-opacity:0;fill-rule:nonzero;stroke:none;stroke-width:1;stroke-linecap:butt;stroke-linejoin:miter;stroke-miterlimit:4;stroke-dasharray:none;stroke-dashoffset:0"
   vector-effect="non-scaling-stroke"
   x="-50"
   y="-50"
   rx="0"
   ry="0"
   width="100"
   height="100"
   id="rect14" />
</g>

<g
   transform="translate(116.00801,75.380641)"
   id="g16">
<rect
   style="opacity:1;fill:#ffffff;fill-opacity:0;fill-rule:nonzero;stroke:none;stroke-width:1;stroke-linecap:butt;stroke-linejoin:miter;stroke-miterlimit:4;stroke-dasharray:none;stroke-dashoffset:0"
   vector-effect="non-scaling-stroke"
   x="-50"
   y="-50"
   rx="0"
   ry="0"
   width="100"
   height="100"
   id="rect16" />
</g>

<g
   transform="translate(116.00801,75.380641)"
   id="g18">
<rect
   style="opacity:1;fill:#ffffff;fill-opacity:0;fill-rule:nonzero;stroke:none;stroke-width:1;stroke-linecap:butt;stroke-linejoin:miter;stroke-miterlimit:4;stroke-dasharray:none;stroke-dashoffset:0"
   vector-effect="non-scaling-stroke"
   x="-50"
   y="-50"
   rx="0"
   ry="0"
   width="100"
   height="100"
   id="rect18" />
</g>

<g
   transform="translate(94.628013,114.58064)"
   id="g20">
<rect
   style="opacity:1;fill:#ffffff;fill-opacity:0;fill-rule:nonzero;stroke:none;stroke-width:1;stroke-linecap:butt;stroke-linejoin:miter;stroke-miterlimit:4;stroke-dasharray:none;stroke-dashoffset:0"
   vector-effect="non-scaling-stroke"
   x="-50"
   y="-50"
   rx="0"
   ry="0"
   width="100"
   height="100"
   id="rect20" />
</g>

<g
   transform="translate(94.628013,114.58064)"
   id="g22">
<rect
   style="opacity:1;fill:#ffffff;fill-opacity:0;fill-rule:nonzero;stroke:none;stroke-width:1;stroke-linecap:butt;stroke-linejoin:miter;stroke-miterlimit:4;stroke-dasharray:none;stroke-dashoffset:0"
   vector-effect="non-scaling-stroke"
   x="-50"
   y="-50"
   rx="0"
   ry="0"
   width="100"
   height="100"
   id="rect22" />
</g>

<g
   transform="translate(116.00801,75.380641)"
   id="g24">
<rect
   style="opacity:1;fill:#ffffff;fill-opacity:0;fill-rule:nonzero;stroke:none;stroke-width:1;stroke-linecap:butt;stroke-linejoin:miter;stroke-miterlimit:4;stroke-dasharray:none;stroke-dashoffset:0"
   vector-effect="non-scaling-stroke"
   x="-50"
   y="-50"
   rx="0"
   ry="0"
   width="100"
   height="100"
   id="rect24" />
</g>

<g
   transform="translate(116.00801,75.380641)"
   id="g26">
<rect
   style="opacity:1;fill:#ffffff;fill-opacity:0;fill-rule:nonzero;stroke:none;stroke-width:1;stroke-linecap:butt;stroke-linejoin:miter;stroke-miterlimit:4;stroke-dasharray:none;stroke-dashoffset:0"
   vector-effect="non-scaling-stroke"
   x="-50"
   y="-50"
   rx="0"
   ry="0"
   width="100"
   height="100"
   id="rect26" />
</g>

<g
   transform="matrix(1.58,0,0,1.55,58.0966,53.045262)"
   id="g28">
<path
   style="opacity:1;fill:#000000;fill-rule:nonzero;stroke:#000000;stroke-width:0;stroke-linecap:butt;stroke-linejoin:miter;stroke-miterlimit:4;stroke-dasharray:none;stroke-dashoffset:0"
   vector-effect="non-scaling-stroke"
   transform="translate(-49.5,-50)"
   d="m 46.971,82.136 c 2.83,2.782 7.365,2.782 10.194,0 L 84.187,55.115 c 2.779,-2.829 2.779,-7.415 0,-10.194 L 57.165,17.899 c -2.829,-2.829 -7.365,-2.829 -10.194,0 -3.658,3.853 4.342,14.633 8.146,24.29 H 17.51 c -2.635,0 -4.78,2.147 -4.78,4.732 v 7.267 c 0,2.635 2.146,4.781 4.78,4.781 h 37.118 c -3.853,9.122 -10.975,18.875 -7.657,23.167 z"
   stroke-linecap="round"
   id="path27" />
</g>
</svg>
