<?xml version="1.0" encoding="UTF-8" standalone="no"?>
<svg
   version="1.1"
   width="275.39911"
   height="275.508"
   viewBox="0 0 275.39911 275.508"
   xml:space="preserve"
   id="svg11"
   xmlns="http://www.w3.org/2000/svg"
   xmlns:svg="http://www.w3.org/2000/svg">
<desc
   id="desc1">Created with Fabric.js 5.2.4</desc>
<defs
   id="defs1" />



<g
   transform="translate(159.77085,175.02661)"
   id="g3">
<rect
   style="opacity:1;fill:#ffffff;fill-opacity:0;fill-rule:nonzero;stroke:none;stroke-width:1;stroke-linecap:butt;stroke-linejoin:miter;stroke-miterlimit:4;stroke-dasharray:none;stroke-dashoffset:0"
   vector-effect="non-scaling-stroke"
   x="-50"
   y="-50"
   rx="0"
   ry="0"
   width="100"
   height="100"
   id="rect3" />
</g>

<g
   transform="translate(181.15085,135.83661)"
   id="g5">
<rect
   style="opacity:1;fill:#ffffff;fill-opacity:0;fill-rule:nonzero;stroke:none;stroke-width:1;stroke-linecap:butt;stroke-linejoin:miter;stroke-miterlimit:4;stroke-dasharray:none;stroke-dashoffset:0"
   vector-effect="non-scaling-stroke"
   x="-50"
   y="-50"
   rx="0"
   ry="0"
   width="100"
   height="100"
   id="rect5" />
</g>

<g
   transform="translate(181.15085,135.83661)"
   id="g7">
<rect
   style="opacity:1;fill:#ffffff;fill-opacity:0;fill-rule:nonzero;stroke:none;stroke-width:1;stroke-linecap:butt;stroke-linejoin:miter;stroke-miterlimit:4;stroke-dasharray:none;stroke-dashoffset:0"
   vector-effect="non-scaling-stroke"
   x="-50"
   y="-50"
   rx="0"
   ry="0"
   width="100"
   height="100"
   id="rect7" />
</g>


<g
   transform="translate(309.41085,258.15661)"
   id="g10">
<rect
   style="opacity:1;fill:#ffffff;fill-opacity:0;fill-rule:nonzero;stroke:none;stroke-width:1;stroke-linecap:butt;stroke-linejoin:miter;stroke-miterlimit:4;stroke-dasharray:none;stroke-dashoffset:0"
   vector-effect="non-scaling-stroke"
   x="-50"
   y="-50"
   rx="0"
   ry="0"
   width="100"
   height="100"
   id="rect10" />
</g>

<g
   transform="matrix(2.16,2.16,-2.16,2.16,137.73024,137.754)"
   id="0948b4f5-885b-44b7-b7e9-ee17bd4cc34b">
<path
   style="opacity:1;fill:#000000;fill-rule:nonzero;stroke:#000000;stroke-width:0;stroke-linecap:butt;stroke-linejoin:miter;stroke-miterlimit:4;stroke-dasharray:none;stroke-dashoffset:0"
   vector-effect="non-scaling-stroke"
   transform="translate(-50,-50)"
   d="m 16.28,19.945 3.677,-3.625 c 2.103,-2.154 5.621,-2.154 7.724,0 L 50.007,38.595 72.333,16.32 c 2.103,-2.154 5.621,-2.154 7.721,0 l 3.626,3.625 c 2.154,2.101 2.154,5.621 0,7.723 L 61.405,49.993 83.68,72.32 c 2.154,2.102 2.154,5.619 0,7.723 l -3.626,3.678 c -2.1,2.099 -5.618,2.099 -7.721,0 L 50.007,61.393 27.681,83.721 c -2.103,2.099 -5.621,2.099 -7.724,0 L 16.28,80.043 c -2.1,-2.104 -2.1,-5.621 0,-7.723 L 38.606,49.993 16.28,27.667 c -2.1,-2.101 -2.1,-5.621 0,-7.722 z"
   stroke-linecap="round"
   id="path11" />
</g>
</svg>
