<?xml version="1.0" encoding="UTF-8" standalone="no"?>
<svg
   version="1.1"
   width="759.52502"
   height="263.05499"
   viewBox="0 0 759.52502 263.05499"
   xml:space="preserve"
   id="svg6"
   xmlns="http://www.w3.org/2000/svg"
   xmlns:svg="http://www.w3.org/2000/svg">
<desc
   id="desc1">Created with Fabric.js 5.2.4</desc>
<defs
   id="defs1" />



<g
   transform="translate(654.4007,267.34224)"
   id="g3">
<rect
   style="opacity:1;fill:#ffffff;fill-opacity:0;fill-rule:nonzero;stroke:none;stroke-width:1;stroke-linecap:butt;stroke-linejoin:miter;stroke-miterlimit:4;stroke-dasharray:none;stroke-dashoffset:0"
   vector-effect="non-scaling-stroke"
   x="-50"
   y="-50"
   rx="0"
   ry="0"
   width="100"
   height="100"
   id="rect3" />
</g>

<g
   transform="matrix(7.41,0,0,7.41,379.7625,131.5275)"
   id="g5">
<path
   style="opacity:1;fill:#ffffff;fill-rule:nonzero;stroke:#000000;stroke-width:13;stroke-linecap:butt;stroke-linejoin:miter;stroke-miterlimit:4;stroke-dasharray:none;stroke-dashoffset:0"
   vector-effect="non-scaling-stroke"
   transform="translate(-50,-50)"
   d="m 94.75,50 c 0,6.213 -5.236,11.25 -11.696,11.25 H 16.946 C 10.486,61.25 5.25,56.213 5.25,50 v 0 c 0,-6.213 5.236,-11.25 11.696,-11.25 h 66.107 c 6.461,0 11.697,5.037 11.697,11.25 z"
   stroke-linecap="round"
   id="path4" />
</g>
<g
   transform="matrix(3.84,0,0,1.41,380.5625,132.1575)"
   id="g6">
<path
   style="opacity:1;fill:#fffb47;fill-rule:nonzero;stroke:#000000;stroke-width:0;stroke-linecap:butt;stroke-linejoin:miter;stroke-miterlimit:4;stroke-dasharray:none;stroke-dashoffset:0"
   vector-effect="non-scaling-stroke"
   transform="translate(-50,-50)"
   d="m 94.75,50 c 0,6.213 -5.236,11.25 -11.696,11.25 H 16.946 C 10.486,61.25 5.25,56.213 5.25,50 v 0 c 0,-6.213 5.236,-11.25 11.696,-11.25 h 66.107 c 6.461,0 11.697,5.037 11.697,11.25 z"
   stroke-linecap="round"
   id="path5" />
</g>
</svg>
