<?xml version="1.0" encoding="UTF-8" standalone="no"?>
<svg
   version="1.1"
   width="377.29999"
   height="377.29999"
   viewBox="0 0 377.29999 377.29999"
   xml:space="preserve"
   id="svg17"
   xmlns="http://www.w3.org/2000/svg"
   xmlns:svg="http://www.w3.org/2000/svg">
<desc
   id="desc1">Created with Fabric.js 5.2.4</desc>
<defs
   id="defs1" />



<g
   transform="translate(121.75269,181.71728)"
   id="g3">
<rect
   style="opacity:1;fill:#ffffff;fill-opacity:0;fill-rule:nonzero;stroke:none;stroke-width:1;stroke-linecap:butt;stroke-linejoin:miter;stroke-miterlimit:4;stroke-dasharray:none;stroke-dashoffset:0"
   vector-effect="non-scaling-stroke"
   x="-50"
   y="-50"
   rx="0"
   ry="0"
   width="100"
   height="100"
   id="rect3" />
</g>

<g
   transform="translate(143.13269,142.52728)"
   id="g5">
<rect
   style="opacity:1;fill:#ffffff;fill-opacity:0;fill-rule:nonzero;stroke:none;stroke-width:1;stroke-linecap:butt;stroke-linejoin:miter;stroke-miterlimit:4;stroke-dasharray:none;stroke-dashoffset:0"
   vector-effect="non-scaling-stroke"
   x="-50"
   y="-50"
   rx="0"
   ry="0"
   width="100"
   height="100"
   id="rect5" />
</g>

<g
   transform="translate(143.13269,142.52728)"
   id="g7">
<rect
   style="opacity:1;fill:#ffffff;fill-opacity:0;fill-rule:nonzero;stroke:none;stroke-width:1;stroke-linecap:butt;stroke-linejoin:miter;stroke-miterlimit:4;stroke-dasharray:none;stroke-dashoffset:0"
   vector-effect="non-scaling-stroke"
   x="-50"
   y="-50"
   rx="0"
   ry="0"
   width="100"
   height="100"
   id="rect7" />
</g>


<g
   transform="translate(271.39269,264.84728)"
   id="g10">
<rect
   style="opacity:1;fill:#ffffff;fill-opacity:0;fill-rule:nonzero;stroke:none;stroke-width:1;stroke-linecap:butt;stroke-linejoin:miter;stroke-miterlimit:4;stroke-dasharray:none;stroke-dashoffset:0"
   vector-effect="non-scaling-stroke"
   x="-50"
   y="-50"
   rx="0"
   ry="0"
   width="100"
   height="100"
   id="rect10" />
</g>

<g
   transform="matrix(5.39,0,0,5.39,188.65,188.65)"
   id="g12">
<path
   style="opacity:1;fill:#ffffff;fill-rule:nonzero;stroke:#000000;stroke-width:0;stroke-linecap:butt;stroke-linejoin:miter;stroke-miterlimit:4;stroke-dasharray:none;stroke-dashoffset:0"
   vector-effect="non-scaling-stroke"
   id="circle11"
   d="M 35,0 A 35,35 0 0 1 30.900792,16.435969 L 0,0 Z" />
</g>


<g
   transform="matrix(2.14,-2.14,2.14,2.14,139.66873,182.51202)"
   id="g15">
<path
   style="opacity:1;fill:#000000;fill-rule:nonzero;stroke:#000000;stroke-width:0;stroke-linecap:butt;stroke-linejoin:miter;stroke-miterlimit:4;stroke-dasharray:none;stroke-dashoffset:0"
   vector-effect="non-scaling-stroke"
   transform="translate(-50,-50)"
   d="m 76.854,20.966 c 4.967,0 8.966,3.999 8.966,8.906 v 47.494 c 0,4.909 -3.999,8.966 -8.966,8.966 H 29.417 c -4.967,0 -8.966,-4.057 -8.966,-8.966 0.182,-6.604 16.721,-9.024 28.474,-14.174 L 15.907,30.176 c -2.302,-2.363 -2.302,-6.12 0,-8.422 l 6.361,-6.361 c 2.302,-2.302 6.058,-2.302 8.36,0 l 32.593,32.654 c 4.667,-11.45 6.967,-26.233 13.633,-27.081 z"
   stroke-linecap="round"
   id="path14" />
</g>
<g
   transform="matrix(1.7168319,0.03670749,0,3.3010005,88.531599,187.62942)"
   id="g16">
<rect
   style="opacity:1;fill:#ffffff;fill-rule:nonzero;stroke:#000000;stroke-width:0;stroke-linecap:butt;stroke-linejoin:miter;stroke-miterlimit:4;stroke-dasharray:none;stroke-dashoffset:0"
   vector-effect="non-scaling-stroke"
   x="-63.299061"
   y="-60.004848"
   rx="0"
   ry="0"
   width="243.45935"
   height="123.00639"
   id="rect15" />
</g>

<g
   transform="matrix(0.55539327,0.01982561,0,1.7828613,25.832319,182.48985)"
   id="g18">
<rect
   style="opacity:1;fill:#ffffff;fill-rule:nonzero;stroke:#000000;stroke-width:0;stroke-linecap:butt;stroke-linejoin:miter;stroke-miterlimit:4;stroke-dasharray:none;stroke-dashoffset:0"
   vector-effect="non-scaling-stroke"
   x="-37.4585"
   y="-19.4165"
   rx="0"
   ry="0"
   width="74.917"
   height="38.833"
   id="rect17" />
</g></svg>
